<svg class="icon icon-bwp" viewBox="0 0 635 636" version="1.1" xmlns="http://www.w3.org/2000/svg">
  <path fill="#1a98ff" opacity="1.00"
    d=" M 218.65 15.91 C 296.80 -9.84 384.96 -3.64 458.56 33.27 C 523.73 65.45 577.12 120.78 606.89 187.10 C 624.83 226.45 634.12 269.54 635.00 312.73 L 635.00 322.56 C 634.21 363.47 625.88 404.27 609.79 441.94 C 595.84 474.69 576.39 505.12 552.38 531.43 C 526.38 560.12 495.00 583.91 460.46 601.41 C 424.83 619.41 385.76 630.58 345.99 634.06 C 296.54 638.47 246.03 631.38 199.91 612.92 C 131.55 585.89 73.38 534.19 38.37 469.56 C 14.98 426.91 2.02 378.77 0.00 330.20 L 0.00 305.65 C 0.86 288.62 2.66 271.61 6.09 254.90 C 16.02 205.07 38.29 157.77 70.30 118.31 C 108.52 70.86 160.66 34.71 218.65 15.91 M 405.49 155.63 C 399.08 158.05 399.58 168.93 406.35 170.53 C 411.97 172.72 419.17 168.37 418.24 161.97 C 418.02 155.82 410.46 153.14 405.49 155.63 M 471.25 158.98 C 471.25 181.65 471.24 204.32 471.25 227.00 C 471.33 228.19 471.18 230.55 473.05 230.34 C 477.32 230.54 481.76 231.02 485.94 229.95 C 486.67 217.34 486.06 204.66 486.22 192.02 C 490.60 189.85 495.76 187.60 500.66 189.36 C 503.69 190.56 504.52 194.09 504.49 197.02 C 504.56 207.02 504.44 217.02 504.50 227.02 C 504.76 228.13 504.21 230.46 506.09 230.29 C 510.00 230.70 513.99 230.71 517.90 230.29 C 520.00 230.20 519.15 227.42 519.51 226.05 C 519.52 215.38 519.48 204.71 519.52 194.03 C 519.48 189.80 519.15 185.15 516.30 181.77 C 513.86 178.74 509.94 177.39 506.18 177.12 C 499.07 176.60 492.08 179.10 486.21 182.97 C 486.02 174.03 486.78 165.00 485.85 156.11 C 481.71 154.93 477.23 155.47 472.98 155.68 C 471.14 155.55 471.34 157.79 471.25 158.98 M 116.95 161.10 C 116.46 166.38 116.87 171.70 116.75 177.00 C 116.85 194.31 116.55 211.64 116.89 228.95 C 116.58 230.67 118.97 230.25 119.98 230.50 C 128.32 230.55 136.66 230.48 144.99 230.51 C 151.91 230.51 159.21 228.28 163.97 223.06 C 168.49 218.07 169.21 210.67 167.51 204.39 C 165.90 198.96 160.96 195.47 155.90 193.54 C 158.40 191.92 161.04 190.24 162.49 187.54 C 166.76 179.78 164.41 168.87 156.71 164.17 C 148.21 158.52 137.59 160.65 128.00 160.24 C 124.36 160.56 120.32 159.39 116.95 161.10 M 436.10 164.99 C 434.88 169.52 434.29 174.18 433.61 178.80 C 431.07 179.50 428.18 179.58 426.00 181.17 C 424.94 183.60 425.48 186.45 425.72 189.02 C 427.97 190.30 430.77 189.57 433.24 189.81 C 433.29 198.87 433.17 207.93 433.28 216.99 C 433.38 222.48 436.26 228.43 441.83 230.14 C 448.41 232.08 455.72 231.66 462.09 229.07 C 462.07 225.86 462.82 222.45 461.75 219.36 C 457.94 218.98 453.89 220.47 450.29 218.78 C 447.86 217.45 448.18 214.35 448.01 212.01 C 447.95 204.59 448.03 197.17 448.00 189.74 C 452.44 189.62 456.93 190.15 461.33 189.40 C 462.57 186.25 461.82 182.73 462.06 179.42 C 457.54 177.83 452.70 178.65 448.02 178.53 C 447.91 174.36 448.23 170.18 447.84 166.02 C 447.65 165.75 447.25 165.20 447.06 164.92 C 443.41 164.49 439.74 164.77 436.10 164.99 M 179.49 179.46 C 178.90 191.94 179.42 204.48 179.24 216.98 C 178.91 222.84 182.00 229.13 187.80 231.08 C 196.32 233.81 205.50 230.54 212.41 225.39 C 212.98 226.88 213.47 228.43 214.27 229.83 C 217.96 230.92 222.13 230.90 225.85 229.92 C 226.25 228.29 226.27 226.62 226.29 224.96 C 226.21 210.97 226.25 196.97 226.27 182.98 C 226.14 181.56 226.53 179.71 225.00 178.90 C 220.97 178.60 216.90 178.57 212.87 178.92 C 210.80 179.13 211.43 181.58 211.23 183.00 C 211.27 194.47 211.21 205.93 211.29 217.40 C 207.33 219.44 202.65 221.43 198.18 219.98 C 194.89 218.90 194.16 215.12 194.09 212.09 C 193.78 201.01 194.25 189.92 193.85 178.84 C 189.13 178.74 183.89 177.47 179.49 179.46 M 235.27 183.85 C 241.50 199.80 247.78 215.74 254.04 231.68 C 252.80 234.64 251.76 238.10 248.80 239.81 C 245.48 241.87 241.40 240.93 237.72 241.06 C 237.56 244.28 237.06 247.60 237.95 250.75 C 243.02 253.20 249.26 253.09 254.54 251.35 C 260.06 249.44 262.88 243.88 264.92 238.81 C 270.76 223.41 276.54 207.98 282.32 192.55 C 283.92 188.13 286.04 183.83 286.55 179.09 C 282.31 179.03 278.04 178.75 273.81 179.19 C 271.69 179.17 271.01 181.45 270.44 183.08 C 267.20 194.39 264.10 205.74 260.78 217.03 C 257.55 206.37 254.34 195.69 251.19 185.00 C 250.56 183.07 250.03 181.02 248.75 179.40 C 244.21 178.69 239.54 178.88 234.96 179.16 C 233.31 180.28 235.07 182.37 235.27 183.85 M 315.11 179.11 C 315.22 183.65 317.30 187.80 318.55 192.09 C 322.81 204.73 326.48 217.59 331.14 230.09 C 335.68 230.48 340.41 231.12 344.87 229.83 C 346.24 228.64 346.63 226.78 347.12 225.12 C 349.67 214.95 352.09 204.75 354.67 194.59 C 357.34 205.04 359.86 215.53 362.42 226.00 C 362.96 227.90 363.67 230.44 366.15 230.33 C 369.93 230.60 373.99 231.05 377.58 229.60 C 378.66 227.90 379.24 225.94 379.89 224.05 C 383.23 213.67 386.65 203.32 390.01 192.96 C 391.47 188.29 393.36 183.72 394.01 178.84 C 389.12 178.35 384.15 178.19 379.30 179.09 C 375.85 190.92 373.97 203.13 371.01 215.08 C 367.37 203.12 365.39 190.65 361.09 178.91 C 357.42 178.57 353.67 178.10 350.02 178.80 C 347.88 178.97 347.48 181.33 346.94 182.96 C 344.26 193.73 341.52 204.48 338.78 215.23 C 335.73 203.19 333.57 190.91 329.91 179.05 C 324.99 178.74 320.00 178.35 315.11 179.11 M 402.49 179.39 C 401.85 181.52 402.00 183.78 401.97 185.98 C 402.08 199.68 401.91 213.38 402.04 227.07 C 402.12 228.28 402.11 230.63 403.97 230.39 C 407.97 230.62 412.01 230.71 416.00 230.27 C 416.21 229.96 416.63 229.33 416.84 229.02 C 417.25 214.02 416.84 198.99 417.04 183.98 C 416.86 182.29 417.44 180.24 416.04 178.94 C 411.58 178.79 406.77 178.10 402.49 179.39 M 279.26 275.27 C 271.49 277.17 268.93 287.50 273.28 293.67 C 277.32 299.54 286.09 300.10 291.98 296.87 C 298.64 292.99 299.26 282.48 293.55 277.49 C 289.57 274.40 284.00 273.70 279.26 275.27 M 335.34 317.98 C 334.63 315.70 333.88 313.44 333.07 311.21 C 328.41 310.32 323.64 310.27 318.94 310.60 C 317.37 310.89 315.07 310.99 314.86 313.02 C 314.27 315.63 314.51 318.33 314.48 320.99 C 314.54 342.30 314.46 363.62 314.51 384.93 C 314.51 386.76 314.74 389.50 317.06 389.75 C 321.35 390.29 325.70 389.90 330.01 390.04 C 332.11 389.92 334.41 390.33 336.34 389.25 C 337.27 387.31 337.24 385.11 337.28 383.01 C 337.22 365.39 337.26 347.76 337.26 330.14 C 343.59 327.36 350.67 325.02 357.63 326.48 C 361.78 327.55 363.56 332.10 363.47 336.03 C 363.56 352.70 363.44 369.38 363.51 386.06 C 363.40 387.67 364.10 389.72 365.98 389.84 C 371.34 390.20 376.74 390.01 382.11 389.96 C 383.88 389.96 386.43 389.29 386.16 387.02 C 386.38 368.02 386.20 349.01 386.23 330.01 C 392.57 327.32 399.67 325.07 406.58 326.51 C 411.18 327.67 412.52 332.86 412.43 337.03 C 412.60 353.36 412.44 369.70 412.49 386.03 C 412.32 387.65 413.05 389.83 414.99 389.87 C 420.70 390.13 426.45 390.12 432.16 389.87 C 435.28 389.90 435.19 386.29 435.26 384.05 C 435.25 368.02 435.23 352.00 435.26 335.98 C 435.31 330.55 435.55 324.87 433.16 319.85 C 430.54 313.69 424.39 309.60 417.88 308.67 C 405.65 306.80 393.35 311.12 383.30 317.92 C 380.39 313.66 376.18 310.17 371.03 309.12 C 358.48 306.06 345.64 310.94 335.34 317.98 M 479.89 308.92 C 469.30 310.42 459.60 317.02 454.52 326.46 C 449.15 336.01 448.38 347.33 449.18 358.04 C 449.87 366.04 452.50 374.08 457.79 380.25 C 463.34 386.73 471.57 390.46 479.92 391.61 C 491.24 393.19 503.05 391.93 513.66 387.61 C 517.30 385.94 515.76 381.22 516.07 378.08 C 515.96 375.83 516.65 371.27 513.07 371.87 C 502.09 374.26 490.12 377.19 479.29 372.65 C 472.74 369.90 470.25 362.59 469.59 356.06 C 477.23 357.73 485.11 357.99 492.88 357.25 C 501.50 356.42 511.08 353.79 516.16 346.19 C 522.39 336.02 519.80 321.01 509.86 314.09 C 501.30 307.91 489.98 307.47 479.89 308.92 M 138.88 317.79 C 138.12 315.75 138.24 313.09 136.46 311.62 C 133.86 310.34 130.82 310.84 128.02 310.69 C 124.99 310.86 121.61 310.23 118.89 311.92 C 118.52 313.24 118.50 314.62 118.47 315.99 C 118.52 349.68 118.50 383.37 118.48 417.06 C 118.42 418.84 118.71 421.70 121.10 421.66 C 126.41 421.89 131.75 421.76 137.07 421.74 C 138.56 421.85 139.84 421.03 141.09 420.36 C 140.88 408.40 141.07 396.45 140.99 384.49 C 148.80 390.63 159.32 392.94 169.03 391.18 C 178.10 389.54 185.66 383.01 189.99 375.06 C 196.00 364.10 196.91 351.02 195.18 338.84 C 193.79 328.96 189.17 319.01 180.72 313.28 C 167.98 304.91 149.89 307.70 138.88 317.79 M 232.55 322.02 C 231.76 318.43 230.89 314.84 229.73 311.35 C 224.60 310.25 219.25 310.13 214.06 310.83 C 210.78 310.96 211.05 314.64 210.98 317.02 C 211.04 339.69 210.97 362.36 211.01 385.03 C 210.91 387.00 211.47 389.74 213.94 389.81 C 219.59 390.14 225.30 390.19 230.95 389.78 C 233.40 389.71 234.23 387.12 234.00 385.06 C 234.00 368.01 234.00 350.96 233.99 333.92 C 240.34 331.51 247.14 330.15 253.94 330.56 C 256.33 330.56 258.87 331.05 261.14 330.05 C 263.22 324.66 261.99 318.62 262.19 312.96 C 262.24 309.15 257.64 309.63 255.04 309.71 C 245.92 309.66 238.45 315.71 232.55 322.02 M 274.23 311.35 C 272.53 312.12 272.97 314.49 272.75 316.03 C 272.74 337.01 272.77 358.00 272.74 378.99 C 272.77 381.97 272.54 384.97 272.97 387.93 C 273.98 390.28 276.91 389.87 278.99 390.02 C 283.62 389.93 288.28 390.26 292.91 389.80 C 294.85 389.62 295.66 387.72 295.49 385.97 C 295.54 363.96 295.46 341.96 295.52 319.95 C 295.50 317.32 295.67 314.67 295.26 312.07 C 293.64 309.72 290.43 310.73 288.03 310.46 C 283.44 310.74 278.64 309.77 274.23 311.35 M 481.53 436.74 C 470.61 438.22 459.70 441.43 450.51 447.65 C 448.90 448.85 446.61 450.57 447.33 452.87 C 447.90 454.81 450.34 454.42 451.89 454.34 C 465.20 452.80 478.64 451.22 492.05 452.31 C 495.75 452.85 500.12 453.24 502.65 456.36 C 504.98 460.57 503.71 465.61 502.96 470.09 C 500.31 482.52 495.53 494.35 490.97 506.16 C 490.44 507.67 489.77 510.45 492.08 510.71 C 494.95 511.25 497.10 508.77 499.07 507.09 C 511.36 495.06 518.44 478.61 521.85 461.98 C 523.01 456.09 523.47 449.99 522.68 444.03 C 522.26 440.45 518.40 439.25 515.48 438.35 C 504.45 435.38 492.80 435.50 481.53 436.74 M 120.27 444.35 C 118.07 446.07 118.84 449.48 120.89 451.00 C 157.08 483.85 201.65 507.36 249.19 518.73 C 292.76 529.24 338.68 529.86 382.51 520.48 C 418.01 512.89 452.75 499.68 482.45 478.53 C 484.99 476.78 487.98 474.41 487.54 470.94 C 486.98 466.28 481.17 464.58 477.39 466.56 C 450.57 477.82 422.50 486.14 393.88 491.33 C 350.74 499.32 306.30 499.65 262.98 492.81 C 214.96 485.27 168.18 469.26 126.05 444.94 C 124.33 443.94 122.11 443.10 120.27 444.35 Z" />
  <path fill="#1a98ff" opacity="1.00"
    d=" M 131.25 171.26 C 135.77 171.41 140.46 170.66 144.84 172.05 C 150.38 174.25 150.78 182.27 147.74 186.62 C 143.43 190.94 136.69 189.16 131.22 189.45 C 131.27 183.38 131.24 177.32 131.25 171.26 Z" />
  <path fill="#1a98ff" opacity="1.00"
    d=" M 131.24 200.01 C 136.59 200.21 142.08 199.37 147.31 200.74 C 155.36 203.09 155.29 217.15 146.95 219.00 C 141.80 219.97 136.52 219.31 131.31 219.53 C 131.19 213.02 131.27 206.52 131.24 200.01 Z" />
  <path fill="#1a98ff" opacity="1.00"
    d=" M 475.13 329.25 C 479.53 324.05 487.46 323.00 493.59 325.40 C 500.58 328.11 500.13 340.01 492.89 342.15 C 485.47 344.59 477.49 343.28 469.94 342.23 C 470.88 337.66 471.90 332.81 475.13 329.25 Z" />
  <path fill="#1a98ff" opacity="1.00"
    d=" M 149.35 326.48 C 154.98 325.28 161.60 324.86 166.41 328.59 C 171.23 332.50 172.44 339.06 172.89 344.92 C 173.21 351.58 173.23 358.49 170.88 364.83 C 169.19 369.48 165.06 373.32 160.07 374.01 C 153.74 374.90 146.97 373.75 141.51 370.35 C 140.87 360.95 141.44 351.47 141.25 342.05 C 141.36 337.94 140.90 333.79 141.52 329.72 C 143.90 328.16 146.62 327.20 149.35 326.48 Z" />
  <path fill="#ffffff" opacity="1.00"
    d=" M 405.49 155.63 C 410.46 153.14 418.02 155.82 418.24 161.97 C 419.17 168.37 411.97 172.72 406.35 170.53 C 399.58 168.93 399.08 158.05 405.49 155.63 Z" />
  <path fill="#ffffff" opacity="1.00"
    d=" M 471.25 158.98 C 471.34 157.79 471.14 155.55 472.98 155.68 C 477.23 155.47 481.71 154.93 485.85 156.11 C 486.78 165.00 486.02 174.03 486.21 182.97 C 492.08 179.10 499.07 176.60 506.18 177.12 C 509.94 177.39 513.86 178.74 516.30 181.77 C 519.15 185.15 519.48 189.80 519.52 194.03 C 519.48 204.71 519.52 215.38 519.51 226.05 C 519.15 227.42 520.00 230.20 517.90 230.29 C 513.99 230.71 510.00 230.70 506.09 230.29 C 504.21 230.46 504.76 228.13 504.50 227.02 C 504.44 217.02 504.56 207.02 504.49 197.02 C 504.52 194.09 503.69 190.56 500.66 189.36 C 495.76 187.60 490.60 189.85 486.22 192.02 C 486.06 204.66 486.67 217.34 485.94 229.95 C 481.76 231.02 477.32 230.54 473.05 230.34 C 471.18 230.55 471.33 228.19 471.25 227.00 C 471.24 204.32 471.25 181.65 471.25 158.98 Z" />
  <path fill="#ffffff" opacity="1.00"
    d=" M 116.95 161.10 C 120.32 159.39 124.36 160.56 128.00 160.24 C 137.59 160.65 148.21 158.52 156.71 164.17 C 164.41 168.87 166.76 179.78 162.49 187.54 C 161.04 190.24 158.40 191.92 155.90 193.54 C 160.96 195.47 165.90 198.96 167.51 204.39 C 169.21 210.67 168.49 218.07 163.97 223.06 C 159.21 228.28 151.91 230.51 144.99 230.51 C 136.66 230.48 128.32 230.55 119.98 230.50 C 118.97 230.25 116.58 230.67 116.89 228.95 C 116.55 211.64 116.85 194.31 116.75 177.00 C 116.87 171.70 116.46 166.38 116.95 161.10 M 131.25 171.26 C 131.24 177.32 131.27 183.38 131.22 189.45 C 136.69 189.16 143.43 190.94 147.74 186.62 C 150.78 182.27 150.38 174.25 144.84 172.05 C 140.46 170.66 135.77 171.41 131.25 171.26 M 131.24 200.01 C 131.27 206.52 131.19 213.02 131.31 219.53 C 136.52 219.31 141.80 219.97 146.95 219.00 C 155.29 217.15 155.36 203.09 147.31 200.74 C 142.08 199.37 136.59 200.21 131.24 200.01 Z" />
  <path fill="#ffffff" opacity="1.00"
    d=" M 436.10 164.99 C 439.74 164.77 443.41 164.49 447.06 164.92 C 447.25 165.20 447.65 165.75 447.84 166.02 C 448.23 170.18 447.91 174.36 448.02 178.53 C 452.70 178.65 457.54 177.83 462.06 179.42 C 461.82 182.73 462.57 186.25 461.33 189.40 C 456.93 190.15 452.44 189.62 448.00 189.74 C 448.03 197.17 447.95 204.59 448.01 212.01 C 448.18 214.35 447.86 217.45 450.29 218.78 C 453.89 220.47 457.94 218.98 461.75 219.36 C 462.82 222.45 462.07 225.86 462.09 229.07 C 455.72 231.66 448.41 232.08 441.83 230.14 C 436.26 228.43 433.38 222.48 433.28 216.99 C 433.17 207.93 433.29 198.87 433.24 189.81 C 430.77 189.57 427.97 190.30 425.72 189.02 C 425.48 186.45 424.94 183.60 426.00 181.17 C 428.18 179.58 431.07 179.50 433.61 178.80 C 434.29 174.18 434.88 169.52 436.10 164.99 Z" />
  <path fill="#ffffff" opacity="1.00"
    d=" M 179.49 179.46 C 183.89 177.47 189.13 178.74 193.85 178.84 C 194.25 189.92 193.78 201.01 194.09 212.09 C 194.16 215.12 194.89 218.90 198.18 219.98 C 202.65 221.43 207.33 219.44 211.29 217.40 C 211.21 205.93 211.27 194.47 211.23 183.00 C 211.43 181.58 210.80 179.13 212.87 178.92 C 216.90 178.57 220.97 178.60 225.00 178.90 C 226.53 179.71 226.14 181.56 226.27 182.98 C 226.25 196.97 226.21 210.97 226.29 224.96 C 226.27 226.62 226.25 228.29 225.85 229.92 C 222.13 230.90 217.96 230.92 214.27 229.83 C 213.47 228.43 212.98 226.88 212.41 225.39 C 205.50 230.54 196.32 233.81 187.80 231.08 C 182.00 229.13 178.91 222.84 179.24 216.98 C 179.42 204.48 178.90 191.94 179.49 179.46 Z" />
  <path fill="#ffffff" opacity="1.00"
    d=" M 235.27 183.85 C 235.07 182.37 233.31 180.28 234.96 179.16 C 239.54 178.88 244.21 178.69 248.75 179.40 C 250.03 181.02 250.56 183.07 251.19 185.00 C 254.34 195.69 257.55 206.37 260.78 217.03 C 264.10 205.74 267.20 194.39 270.44 183.08 C 271.01 181.45 271.69 179.17 273.81 179.19 C 278.04 178.75 282.31 179.03 286.55 179.09 C 286.04 183.83 283.92 188.13 282.32 192.55 C 276.54 207.98 270.76 223.41 264.92 238.81 C 262.88 243.88 260.06 249.44 254.54 251.35 C 249.26 253.09 243.02 253.20 237.95 250.75 C 237.06 247.60 237.56 244.28 237.72 241.06 C 241.40 240.93 245.48 241.87 248.80 239.81 C 251.76 238.10 252.80 234.64 254.04 231.68 C 247.78 215.74 241.50 199.80 235.27 183.85 Z" />
  <path fill="#ffffff" opacity="1.00"
    d=" M 315.11 179.11 C 320.00 178.35 324.99 178.74 329.91 179.05 C 333.57 190.91 335.73 203.19 338.78 215.23 C 341.52 204.48 344.26 193.73 346.94 182.96 C 347.48 181.33 347.88 178.97 350.02 178.80 C 353.67 178.10 357.42 178.57 361.09 178.91 C 365.39 190.65 367.37 203.12 371.01 215.08 C 373.97 203.13 375.85 190.92 379.30 179.09 C 384.15 178.19 389.12 178.35 394.01 178.84 C 393.36 183.72 391.47 188.29 390.01 192.96 C 386.65 203.32 383.23 213.67 379.89 224.05 C 379.24 225.94 378.66 227.90 377.58 229.60 C 373.99 231.05 369.93 230.60 366.15 230.33 C 363.67 230.44 362.96 227.90 362.42 226.00 C 359.86 215.53 357.34 205.04 354.67 194.59 C 352.09 204.75 349.67 214.95 347.12 225.12 C 346.63 226.78 346.24 228.64 344.87 229.83 C 340.41 231.12 335.68 230.48 331.14 230.09 C 326.48 217.59 322.81 204.73 318.55 192.09 C 317.30 187.80 315.22 183.65 315.11 179.11 Z" />
  <path fill="#ffffff" opacity="1.00"
    d=" M 402.49 179.39 C 406.77 178.10 411.58 178.79 416.04 178.94 C 417.44 180.24 416.86 182.29 417.04 183.98 C 416.84 198.99 417.25 214.02 416.84 229.02 C 416.63 229.33 416.21 229.96 416.00 230.27 C 412.01 230.71 407.97 230.62 403.97 230.39 C 402.11 230.63 402.12 228.28 402.04 227.07 C 401.91 213.38 402.08 199.68 401.97 185.98 C 402.00 183.78 401.85 181.52 402.49 179.39 Z" />
  <path fill="#ffffff" opacity="1.00"
    d=" M 279.26 275.27 C 284.00 273.70 289.57 274.40 293.55 277.49 C 299.26 282.48 298.64 292.99 291.98 296.87 C 286.09 300.10 277.32 299.54 273.28 293.67 C 268.93 287.50 271.49 277.17 279.26 275.27 Z" />
  <path fill="#ffffff" opacity="1.00"
    d=" M 335.34 317.98 C 345.64 310.94 358.48 306.06 371.03 309.12 C 376.18 310.17 380.39 313.66 383.30 317.92 C 393.35 311.12 405.65 306.80 417.88 308.67 C 424.39 309.60 430.54 313.69 433.16 319.85 C 435.55 324.87 435.31 330.55 435.26 335.98 C 435.23 352.00 435.25 368.02 435.26 384.05 C 435.19 386.29 435.28 389.90 432.16 389.87 C 426.45 390.12 420.70 390.13 414.99 389.87 C 413.05 389.83 412.32 387.65 412.49 386.03 C 412.44 369.70 412.60 353.36 412.43 337.03 C 412.52 332.86 411.18 327.67 406.58 326.51 C 399.67 325.07 392.57 327.32 386.23 330.01 C 386.20 349.01 386.38 368.02 386.16 387.02 C 386.43 389.29 383.88 389.96 382.11 389.96 C 376.74 390.01 371.34 390.20 365.98 389.84 C 364.10 389.72 363.40 387.67 363.51 386.06 C 363.44 369.38 363.56 352.70 363.47 336.03 C 363.56 332.10 361.78 327.55 357.63 326.48 C 350.67 325.02 343.59 327.36 337.26 330.14 C 337.26 347.76 337.22 365.39 337.28 383.01 C 337.24 385.11 337.27 387.31 336.34 389.25 C 334.41 390.33 332.11 389.92 330.01 390.04 C 325.70 389.90 321.35 390.29 317.06 389.75 C 314.74 389.50 314.51 386.76 314.51 384.93 C 314.46 363.62 314.54 342.30 314.48 320.99 C 314.51 318.33 314.27 315.63 314.86 313.02 C 315.07 310.99 317.37 310.89 318.94 310.60 C 323.64 310.27 328.41 310.32 333.07 311.21 C 333.88 313.44 334.63 315.70 335.34 317.98 Z" />
  <path fill="#ffffff" opacity="1.00"
    d=" M 479.89 308.92 C 489.98 307.47 501.30 307.91 509.86 314.09 C 519.80 321.01 522.39 336.02 516.16 346.19 C 511.08 353.79 501.50 356.42 492.88 357.25 C 485.11 357.99 477.23 357.73 469.59 356.06 C 470.25 362.59 472.74 369.90 479.29 372.65 C 490.12 377.19 502.09 374.26 513.07 371.87 C 516.65 371.27 515.96 375.83 516.07 378.08 C 515.76 381.22 517.30 385.94 513.66 387.61 C 503.05 391.93 491.24 393.19 479.92 391.61 C 471.57 390.46 463.34 386.73 457.79 380.25 C 452.50 374.08 449.87 366.04 449.18 358.04 C 448.38 347.33 449.15 336.01 454.52 326.46 C 459.60 317.02 469.30 310.42 479.89 308.92 M 475.13 329.25 C 471.90 332.81 470.88 337.66 469.94 342.23 C 477.49 343.28 485.47 344.59 492.89 342.15 C 500.13 340.01 500.58 328.11 493.59 325.40 C 487.46 323.00 479.53 324.05 475.13 329.25 Z" />
  <path fill="#ffffff" opacity="1.00"
    d=" M 138.88 317.79 C 149.89 307.70 167.98 304.91 180.72 313.28 C 189.17 319.01 193.79 328.96 195.18 338.84 C 196.91 351.02 196.00 364.10 189.99 375.06 C 185.66 383.01 178.10 389.54 169.03 391.18 C 159.32 392.94 148.80 390.63 140.99 384.49 C 141.07 396.45 140.88 408.40 141.09 420.36 C 139.84 421.03 138.56 421.85 137.07 421.74 C 131.75 421.76 126.41 421.89 121.10 421.66 C 118.71 421.70 118.42 418.84 118.48 417.06 C 118.50 383.37 118.52 349.68 118.47 315.99 C 118.50 314.62 118.52 313.24 118.89 311.92 C 121.61 310.23 124.99 310.86 128.02 310.69 C 130.82 310.84 133.86 310.34 136.46 311.62 C 138.24 313.09 138.12 315.75 138.88 317.79 M 149.35 326.48 C 146.62 327.20 143.90 328.16 141.52 329.72 C 140.90 333.79 141.36 337.94 141.25 342.05 C 141.44 351.47 140.87 360.95 141.51 370.35 C 146.97 373.75 153.74 374.90 160.07 374.01 C 165.06 373.32 169.19 369.48 170.88 364.83 C 173.23 358.49 173.21 351.58 172.89 344.92 C 172.44 339.06 171.23 332.50 166.41 328.59 C 161.60 324.86 154.98 325.28 149.35 326.48 Z" />
  <path fill="#ffffff" opacity="1.00"
    d=" M 232.55 322.02 C 238.45 315.71 245.92 309.66 255.04 309.71 C 257.64 309.63 262.24 309.15 262.19 312.96 C 261.99 318.62 263.22 324.66 261.14 330.05 C 258.87 331.05 256.33 330.56 253.94 330.56 C 247.14 330.15 240.34 331.51 233.99 333.92 C 234.00 350.96 234.00 368.01 234.00 385.06 C 234.23 387.12 233.40 389.71 230.95 389.78 C 225.30 390.19 219.59 390.14 213.94 389.81 C 211.47 389.74 210.91 387.00 211.01 385.03 C 210.97 362.36 211.04 339.69 210.98 317.02 C 211.05 314.64 210.78 310.96 214.06 310.83 C 219.25 310.13 224.60 310.25 229.73 311.35 C 230.89 314.84 231.76 318.43 232.55 322.02 Z" />
  <path fill="#ffffff" opacity="1.00"
    d=" M 274.23 311.35 C 278.64 309.77 283.44 310.74 288.03 310.46 C 290.43 310.73 293.64 309.72 295.26 312.07 C 295.67 314.67 295.50 317.32 295.52 319.95 C 295.46 341.96 295.54 363.96 295.49 385.97 C 295.66 387.72 294.85 389.62 292.91 389.80 C 288.28 390.26 283.62 389.93 278.99 390.02 C 276.91 389.87 273.98 390.28 272.97 387.93 C 272.54 384.97 272.77 381.97 272.74 378.99 C 272.77 358.00 272.74 337.01 272.75 316.03 C 272.97 314.49 272.53 312.12 274.23 311.35 Z" />
  <path fill="#ffffff" opacity="1.00"
    d=" M 481.53 436.74 C 492.80 435.50 504.45 435.38 515.48 438.35 C 518.40 439.25 522.26 440.45 522.68 444.03 C 523.47 449.99 523.01 456.09 521.85 461.98 C 518.44 478.61 511.36 495.06 499.07 507.09 C 497.10 508.77 494.95 511.25 492.08 510.71 C 489.77 510.45 490.44 507.67 490.97 506.16 C 495.53 494.35 500.31 482.52 502.96 470.09 C 503.71 465.61 504.98 460.57 502.65 456.36 C 500.12 453.24 495.75 452.85 492.05 452.31 C 478.64 451.22 465.20 452.80 451.89 454.34 C 450.34 454.42 447.90 454.81 447.33 452.87 C 446.61 450.57 448.90 448.85 450.51 447.65 C 459.70 441.43 470.61 438.22 481.53 436.74 Z" />
  <path fill="#ffffff" opacity="1.00"
    d=" M 120.27 444.35 C 122.11 443.10 124.33 443.94 126.05 444.94 C 168.18 469.26 214.96 485.27 262.98 492.81 C 306.30 499.65 350.74 499.32 393.88 491.33 C 422.50 486.14 450.57 477.82 477.39 466.56 C 481.17 464.58 486.98 466.28 487.54 470.94 C 487.98 474.41 484.99 476.78 482.45 478.53 C 452.75 499.68 418.01 512.89 382.51 520.48 C 338.68 529.86 292.76 529.24 249.19 518.73 C 201.65 507.36 157.08 483.85 120.89 451.00 C 118.84 449.48 118.07 446.07 120.27 444.35 Z" />
</svg>